<svg xmlns="http://www.w3.org/2000/svg" width="44.941" height="41.025" viewBox="0 0 44.941 41.025"><defs><style>.a{fill:#4684b9;}.b{fill:#468db9;opacity:0.247;}.c{fill:#a0cc4d;}</style></defs><g transform="translate(-1139 -165)"><path class="a" d="M20.512,41.025a20.664,20.664,0,0,1-4.134-.417,20.4,20.4,0,0,1-7.335-3.086A20.572,20.572,0,0,1,1.612,28.5a20.409,20.409,0,0,1-1.2-3.85,20.712,20.712,0,0,1,0-8.268A20.4,20.4,0,0,1,3.5,9.044a20.572,20.572,0,0,1,9.025-7.432,20.408,20.408,0,0,1,3.85-1.2,20.707,20.707,0,0,1,8.448.038,20.413,20.413,0,0,1,7.592,3.353,20.668,20.668,0,0,1,3.09,2.71,22.859,22.859,0,0,0-14.016.172A20.4,20.4,0,0,0,18.32,8.084a18.54,18.54,0,0,0-2.764,1.847,16.474,16.474,0,0,0-2.281,2.239,14.516,14.516,0,0,0-1.722,2.569,13.053,13.053,0,0,0-1.088,2.839,12.434,12.434,0,0,0,0,6.1,13.053,13.053,0,0,0,1.088,2.839,14.516,14.516,0,0,0,1.722,2.569,16.474,16.474,0,0,0,2.281,2.239A18.541,18.541,0,0,0,18.32,33.17a20.4,20.4,0,0,0,3.173,1.395,22.383,22.383,0,0,0,7.271,1.189,22.572,22.572,0,0,0,6.437-.922,20.55,20.55,0,0,1-6.582,4.53,20.407,20.407,0,0,1-3.906,1.233A20.66,20.66,0,0,1,20.512,41.025Z" transform="translate(1139 165)"/><path class="b" d="M12.952,0a13.338,13.338,0,0,0-2.61.257A13.01,13.01,0,0,0,3.794,3.708,12.819,12.819,0,0,0,2.212,5.582a12.574,12.574,0,0,0-1.194,2.15,12.418,12.418,0,0,0,0,9.856,12.574,12.574,0,0,0,1.194,2.15,12.819,12.819,0,0,0,1.582,1.874,13.026,13.026,0,0,0,6.548,3.451,13.371,13.371,0,0,0,5.334-.023A13.039,13.039,0,0,0,20.47,22.97,12.965,12.965,0,0,0,22.421,21.3a14.512,14.512,0,0,1-4.259.627,14.43,14.43,0,0,1-4.591-.734,13.035,13.035,0,0,1-2-.861,11.73,11.73,0,0,1-1.746-1.14,10.294,10.294,0,0,1-1.44-1.382,8.948,8.948,0,0,1-1.087-1.586,7.946,7.946,0,0,1-.687-1.752,7.507,7.507,0,0,1,0-3.763,7.946,7.946,0,0,1,.687-1.752A8.948,8.948,0,0,1,8.382,7.37a10.3,10.3,0,0,1,1.44-1.382,11.73,11.73,0,0,1,1.746-1.14,13.034,13.034,0,0,1,2-.861,14.762,14.762,0,0,1,8.655-.164A13.022,13.022,0,0,0,15.6.266,13.336,13.336,0,0,0,12.952,0Z" transform="translate(1178.435 198.172) rotate(180)"/><rect class="c" width="28" height="9" rx="4.5" transform="translate(1155.941 181.012)"/></g></svg>